<svg width="32" height="32" viewBox="0 0 32 32" fill="none" xmlns="http://www.w3.org/2000/svg">
<g filter="url(#filter0_dd_1_28)">
<g clip-path="url(#clip0_1_28)">
<rect x="2" y="2" width="28" height="28" rx="8" fill="white"/>
<rect x="2" y="2" width="28" height="28" rx="8" fill="url(#paint0_linear_1_28)"/>
<path d="M16 7.10796C21.0902 7.10796 25.2498 11.2664 25.25 16.4371C25.25 21.608 21.0904 25.7671 16 25.7671C10.9096 25.7671 6.75 21.608 6.75 16.4371C6.75024 11.2664 10.9098 7.10796 16 7.10796Z" stroke="#7F56D9" stroke-width="6"/>
<path d="M2 16H30V17.2C30 21.6804 30 23.9206 29.1281 25.6319C28.3611 27.1372 27.1372 28.3611 25.6319 29.1281C23.9206 30 21.6804 30 17.2 30H14.8C10.3196 30 8.07937 30 6.36808 29.1281C4.86278 28.3611 3.63893 27.1372 2.87195 25.6319C2 23.9206 2 21.6804 2 17.2V16Z" fill="white" fill-opacity="0.2"/>
</g>
<rect x="2.1" y="2.1" width="27.8" height="27.8" rx="7.9" stroke="#D0D5DD" stroke-width="0.2"/>
</g>
<defs>
<filter id="filter0_dd_1_28" x="-1" y="0" width="34" height="34" filterUnits="userSpaceOnUse" color-interpolation-filters="sRGB">
<feFlood flood-opacity="0" result="BackgroundImageFix"/>
<feColorMatrix in="SourceAlpha" type="matrix" values="0 0 0 0 0 0 0 0 0 0 0 0 0 0 0 0 0 0 127 0" result="hardAlpha"/>
<feOffset dy="1"/>
<feGaussianBlur stdDeviation="1"/>
<feColorMatrix type="matrix" values="0 0 0 0 0.0627451 0 0 0 0 0.0941176 0 0 0 0 0.156863 0 0 0 0.06 0"/>
<feBlend mode="normal" in2="BackgroundImageFix" result="effect1_dropShadow_1_28"/>
<feColorMatrix in="SourceAlpha" type="matrix" values="0 0 0 0 0 0 0 0 0 0 0 0 0 0 0 0 0 0 127 0" result="hardAlpha"/>
<feOffset dy="1"/>
<feGaussianBlur stdDeviation="1.5"/>
<feColorMatrix type="matrix" values="0 0 0 0 0.0627451 0 0 0 0 0.0941176 0 0 0 0 0.156863 0 0 0 0.1 0"/>
<feBlend mode="normal" in2="effect1_dropShadow_1_28" result="effect2_dropShadow_1_28"/>
<feBlend mode="normal" in="SourceGraphic" in2="effect2_dropShadow_1_28" result="shape"/>
</filter>
<linearGradient id="paint0_linear_1_28" x1="16" y1="2" x2="16" y2="30" gradientUnits="userSpaceOnUse">
<stop stop-color="white"/>
<stop offset="1" stop-color="#D0D5DD"/>
</linearGradient>
<clipPath id="clip0_1_28">
<rect x="2" y="2" width="28" height="28" rx="8" fill="white"/>
</clipPath>
</defs>
</svg>
